<?xml version="1.0"?>
<svg xmlns="http://www.w3.org/2000/svg" viewBox="0 0 332 96" width="332" height="96">
  <title>Kaleido Wordmark Lockup (on AI)</title>
  <desc>Kaleido — 横組みロックアップ 英字のみ (藍地・透過)</desc>

  <svg x="0" y="0" width="96" height="96" viewBox="-100 -100 200 200" overflow="visible">
    <g transform="rotate(0)">
    <path d="M 88,0 C 76,-8 64,-10 52,-6 C 64,-2 76,2 88,0 Z" fill="#FCD34D"></path>
    <path d="M 88,0 C 76,8 64,10 52,6 C 64,2 76,-2 88,0 Z" fill="#FCD34D"></path>
    <path d="M 44,-14 L 28,-4 L 44,-4 Z" fill="#DC2626"></path>
    <path d="M 44,14 L 28,4 L 44,4 Z" fill="#DC2626"></path>
    <circle cx="22" cy="-9" r="3.6" fill="#f5f1e6"></circle>
    <circle cx="22" cy="9" r="3.6" fill="#f5f1e6"></circle>
    <circle cx="62" cy="0" r="3.4" fill="#f5f1e6"></circle>
    </g>
    <g transform="rotate(72)">
    <path d="M 88,0 C 76,-8 64,-10 52,-6 C 64,-2 76,2 88,0 Z" fill="#FCD34D"></path>
    <path d="M 88,0 C 76,8 64,10 52,6 C 64,2 76,-2 88,0 Z" fill="#FCD34D"></path>
    <path d="M 44,-14 L 28,-4 L 44,-4 Z" fill="#DC2626"></path>
    <path d="M 44,14 L 28,4 L 44,4 Z" fill="#DC2626"></path>
    <circle cx="22" cy="-9" r="3.6" fill="#f5f1e6"></circle>
    <circle cx="22" cy="9" r="3.6" fill="#f5f1e6"></circle>
    <circle cx="62" cy="0" r="3.4" fill="#f5f1e6"></circle>
    </g>
    <g transform="rotate(144)">
    <path d="M 88,0 C 76,-8 64,-10 52,-6 C 64,-2 76,2 88,0 Z" fill="#FCD34D"></path>
    <path d="M 88,0 C 76,8 64,10 52,6 C 64,2 76,-2 88,0 Z" fill="#FCD34D"></path>
    <path d="M 44,-14 L 28,-4 L 44,-4 Z" fill="#DC2626"></path>
    <path d="M 44,14 L 28,4 L 44,4 Z" fill="#DC2626"></path>
    <circle cx="22" cy="-9" r="3.6" fill="#f5f1e6"></circle>
    <circle cx="22" cy="9" r="3.6" fill="#f5f1e6"></circle>
    <circle cx="62" cy="0" r="3.4" fill="#f5f1e6"></circle>
    </g>
    <g transform="rotate(216)">
    <path d="M 88,0 C 76,-8 64,-10 52,-6 C 64,-2 76,2 88,0 Z" fill="#FCD34D"></path>
    <path d="M 88,0 C 76,8 64,10 52,6 C 64,2 76,-2 88,0 Z" fill="#FCD34D"></path>
    <path d="M 44,-14 L 28,-4 L 44,-4 Z" fill="#DC2626"></path>
    <path d="M 44,14 L 28,4 L 44,4 Z" fill="#DC2626"></path>
    <circle cx="22" cy="-9" r="3.6" fill="#f5f1e6"></circle>
    <circle cx="22" cy="9" r="3.6" fill="#f5f1e6"></circle>
    <circle cx="62" cy="0" r="3.4" fill="#f5f1e6"></circle>
    </g>
    <g transform="rotate(288)">
    <path d="M 88,0 C 76,-8 64,-10 52,-6 C 64,-2 76,2 88,0 Z" fill="#FCD34D"></path>
    <path d="M 88,0 C 76,8 64,10 52,6 C 64,2 76,-2 88,0 Z" fill="#FCD34D"></path>
    <path d="M 44,-14 L 28,-4 L 44,-4 Z" fill="#DC2626"></path>
    <path d="M 44,14 L 28,4 L 44,4 Z" fill="#DC2626"></path>
    <circle cx="22" cy="-9" r="3.6" fill="#f5f1e6"></circle>
    <circle cx="22" cy="9" r="3.6" fill="#f5f1e6"></circle>
    <circle cx="62" cy="0" r="3.4" fill="#f5f1e6"></circle>
    </g>
  </svg>

  <g transform="translate(124, 48)">
    <text x="0" y="0" font-family="Marcellus, 'Times New Roman', serif" font-size="56" fill="#f5f1e6" dominant-baseline="central">Kaleido</text>
  </g>
</svg>
