<?xml version="1.0"?>
<svg xmlns="http://www.w3.org/2000/svg" viewBox="-100 -100 200 200" width="400" height="400">
  <title>Kaleido Symbol</title>
  <desc>株式会社カレイド ロゴシンボル — 5方マンダラ (藍朱)</desc>
  <g transform="rotate(0)">
    <path d="M 88,0 C 76,-8 64,-10 52,-6 C 64,-2 76,2 88,0 Z" fill="#1E3A8A"></path>
    <path d="M 88,0 C 76,8 64,10 52,6 C 64,2 76,-2 88,0 Z" fill="#1E3A8A"></path>
    <path d="M 44,-14 L 28,-4 L 44,-4 Z" fill="#DC2626"></path>
    <path d="M 44,14 L 28,4 L 44,4 Z" fill="#DC2626"></path>
    <circle cx="22" cy="-9" r="3.6" fill="#FCD34D"></circle>
    <circle cx="22" cy="9" r="3.6" fill="#FCD34D"></circle>
    <circle cx="62" cy="0" r="3.4" fill="#0F172A"></circle>
  </g>
  <g transform="rotate(72)">
    <path d="M 88,0 C 76,-8 64,-10 52,-6 C 64,-2 76,2 88,0 Z" fill="#1E3A8A"></path>
    <path d="M 88,0 C 76,8 64,10 52,6 C 64,2 76,-2 88,0 Z" fill="#1E3A8A"></path>
    <path d="M 44,-14 L 28,-4 L 44,-4 Z" fill="#DC2626"></path>
    <path d="M 44,14 L 28,4 L 44,4 Z" fill="#DC2626"></path>
    <circle cx="22" cy="-9" r="3.6" fill="#FCD34D"></circle>
    <circle cx="22" cy="9" r="3.6" fill="#FCD34D"></circle>
    <circle cx="62" cy="0" r="3.4" fill="#0F172A"></circle>
  </g>
  <g transform="rotate(144)">
    <path d="M 88,0 C 76,-8 64,-10 52,-6 C 64,-2 76,2 88,0 Z" fill="#1E3A8A"></path>
    <path d="M 88,0 C 76,8 64,10 52,6 C 64,2 76,-2 88,0 Z" fill="#1E3A8A"></path>
    <path d="M 44,-14 L 28,-4 L 44,-4 Z" fill="#DC2626"></path>
    <path d="M 44,14 L 28,4 L 44,4 Z" fill="#DC2626"></path>
    <circle cx="22" cy="-9" r="3.6" fill="#FCD34D"></circle>
    <circle cx="22" cy="9" r="3.6" fill="#FCD34D"></circle>
    <circle cx="62" cy="0" r="3.4" fill="#0F172A"></circle>
  </g>
  <g transform="rotate(216)">
    <path d="M 88,0 C 76,-8 64,-10 52,-6 C 64,-2 76,2 88,0 Z" fill="#1E3A8A"></path>
    <path d="M 88,0 C 76,8 64,10 52,6 C 64,2 76,-2 88,0 Z" fill="#1E3A8A"></path>
    <path d="M 44,-14 L 28,-4 L 44,-4 Z" fill="#DC2626"></path>
    <path d="M 44,14 L 28,4 L 44,4 Z" fill="#DC2626"></path>
    <circle cx="22" cy="-9" r="3.6" fill="#FCD34D"></circle>
    <circle cx="22" cy="9" r="3.6" fill="#FCD34D"></circle>
    <circle cx="62" cy="0" r="3.4" fill="#0F172A"></circle>
  </g>
  <g transform="rotate(288)">
    <path d="M 88,0 C 76,-8 64,-10 52,-6 C 64,-2 76,2 88,0 Z" fill="#1E3A8A"></path>
    <path d="M 88,0 C 76,8 64,10 52,6 C 64,2 76,-2 88,0 Z" fill="#1E3A8A"></path>
    <path d="M 44,-14 L 28,-4 L 44,-4 Z" fill="#DC2626"></path>
    <path d="M 44,14 L 28,4 L 44,4 Z" fill="#DC2626"></path>
    <circle cx="22" cy="-9" r="3.6" fill="#FCD34D"></circle>
    <circle cx="22" cy="9" r="3.6" fill="#FCD34D"></circle>
    <circle cx="62" cy="0" r="3.4" fill="#0F172A"></circle>
  </g>
</svg>